<svg width="26" height="30" viewBox="0 0 26 30" fill="none" xmlns="http://www.w3.org/2000/svg">
<path fill-rule="evenodd" clip-rule="evenodd" d="M1.3754 4H0.0233536C0.248924 1.75244 2.08101 0 4.30769 0H21.6923C24.0714 0 26 2.00049 26 4.46802V25.532C26 27.9995 24.0714 30 21.6923 30H8.03442C8.26736 30 8.45639 29.8032 8.45639 29.5605V28.4197H9.29034C11.3871 28.4197 13.0866 26.6501 13.0866 24.4668L13.0863 24.4463L13.0851 24.408V21.7166C13.1666 21.7209 13.2484 21.7234 13.331 21.7234C15.9095 21.7234 18 19.5469 18 16.8621C18.0003 14.1768 15.9097 12 13.3311 12C10.7962 12 8.73502 14.1033 8.66527 16.7251L8.66348 20.5142H0V18H7.06757L7.06908 15.9116C7.13968 13.5344 8.74912 11.5603 11 10.8005C9.81476 6.8772 5.95659 4 1.3754 4ZM1.02048 28.4197C1.81065 29.3865 2.99009 30 4.30769 30H5.2263C4.99337 30 4.80434 29.8032 4.80434 29.5605V28.4197H1.02048Z" fill="#ED9121"/>
</svg>
